<svg width="186" height="122" viewBox="0 0 186 122" fill="none" xmlns="http://www.w3.org/2000/svg">
<path d="M185.742 86.5991C185.732 87.8623 185.347 89.0941 184.637 90.1392C183.927 91.1842 182.924 91.9958 181.754 92.4717C180.583 92.9475 179.298 93.0663 178.061 92.8131C176.823 92.56 175.688 91.9461 174.798 91.0489C173.909 90.1518 173.305 89.0114 173.063 87.7716C172.82 86.5317 172.95 85.2479 173.436 84.0817C173.922 82.9156 174.742 81.9194 175.793 81.2186C176.845 80.5179 178.08 80.1439 179.343 80.1439C180.199 80.1036 181.054 80.2434 181.852 80.5543C182.65 80.8652 183.375 81.3403 183.978 81.9488C184.581 82.5572 185.05 83.2855 185.354 84.0866C185.658 84.8876 185.79 85.7436 185.742 86.5991M179.343 91.7372C180.369 91.7929 181.389 91.5395 182.269 91.0098C183.15 90.4801 183.852 89.6984 184.284 88.7658C184.716 87.8332 184.858 86.7925 184.692 85.7782C184.526 84.7638 184.06 83.8225 183.354 83.0758C182.648 82.3291 181.734 81.8114 180.73 81.5895C179.727 81.3677 178.68 81.4519 177.725 81.8312C176.769 82.2106 175.95 82.8677 175.372 83.7176C174.794 84.5676 174.484 85.5713 174.483 86.5991C174.425 87.2647 174.509 87.9352 174.729 88.5661C174.949 89.1971 175.3 89.7743 175.759 90.2598C176.218 90.7453 176.775 91.1279 177.393 91.3826C178.01 91.6372 178.675 91.7581 179.343 91.7372M180.901 87.508C183.294 86.97 182.756 83.3158 179.899 83.3158H176.765V89.8823H178.49V87.8419H179.102L180.66 89.8823H182.515V89.5113L180.901 87.508ZM179.899 84.874C180.008 84.8568 180.119 84.8635 180.225 84.8934C180.33 84.9232 180.428 84.9757 180.512 85.0471C180.596 85.1185 180.663 85.2071 180.709 85.3069C180.755 85.4067 180.778 85.5153 180.778 85.6252C180.778 85.7351 180.755 85.8437 180.709 85.9435C180.663 86.0433 180.596 86.1319 180.512 86.2033C180.428 86.2747 180.33 86.3272 180.225 86.3571C180.119 86.387 180.008 86.3936 179.899 86.3765H178.49V84.874H179.899Z" fill="#E8443C"/>
<path d="M36.9017 77.5655H29.7416V44.77H36.9017C46.3063 44.77 51.7413 50.7615 51.7413 61.2234C51.7413 71.6853 46.3619 77.5655 36.9017 77.5655ZM137.514 48.2017V46.3467C136.322 46.7004 135.162 47.1534 134.045 47.7008C135.213 47.7144 136.375 47.8512 137.514 48.1089M59.1796 76.9162L57.1948 79.6986L57.8997 71.8337C58.5646 66.581 61.1557 61.7622 65.1711 58.3111C64.6146 58.3111 64.021 58.4595 63.3161 58.5894L56.2673 60.0548L61.4612 54.9537C63.3619 53.2795 65.4841 51.8751 67.768 50.7801L68.5285 50.372C66.0366 42.9448 60.7461 36.7826 53.7817 33.1952C48.932 30.6995 43.5616 29.3839 38.1074 29.3554V29.3554H25.2898C15.1432 29.3554 10.3389 29.2256 6.74032 28.4094C4.71335 27.8262 2.78689 26.9381 1.02709 25.7754L0.248016 25.3302V26.2577C0.248016 26.5545 0.971445 33.4178 9.18885 39.4278C10.7841 40.5593 11.8971 41.6908 11.8971 45.7346V82.5367C11.8971 86.4692 11.118 87.5636 9.2816 88.6766C7.4452 89.7895 3.23448 92.2566 3.23448 92.2566L1.80617 93.0913H35.1952C44.4699 93.0913 50.3686 91.5146 56.694 87.2854C57.5615 86.7126 58.3974 86.0934 59.1982 85.4304C58.7814 82.6325 58.7814 79.7883 59.1982 76.9904M123.045 77.8808C123.242 77.5829 123.365 77.2424 123.404 76.8875C123.442 76.5326 123.396 76.1737 123.268 75.8404L121.19 70.1086L126.384 73.1878C126.876 73.4858 127.336 73.8339 127.757 74.2266L130.873 74.004C133.139 73.7908 135.424 74.1018 137.551 74.9129V58.7749C136.666 59.0426 135.832 59.4564 135.084 59.9991L133.767 61.1863L132.339 60.1104C131.247 59.3672 129.949 58.9845 128.629 59.016C127.449 59.015 126.282 59.2603 125.202 59.7363C124.123 60.2122 123.154 60.9082 122.359 61.7799C121.432 62.8557 120.504 63.9687 119.818 65.0631V77.8437C121.079 78.8083 122.396 78.7897 123.082 77.8437M161.628 33.1952C156.778 30.6995 151.408 29.3839 145.954 29.3554V29.3554H133.081C122.934 29.3554 118.13 29.2256 114.531 28.4094C112.504 27.8262 110.578 26.9381 108.818 25.7754L108.039 25.256V26.1835C108.039 26.4803 108.762 33.3436 116.98 39.3536C118.575 40.4851 119.688 41.6166 119.688 45.6604V48.313C121.542 47.181 123.499 46.2247 125.531 45.4564C124.661 46.2407 123.871 47.1108 123.175 48.0533C125.036 46.8672 127.13 46.0954 129.315 45.7903C132.014 45.3084 134.778 45.3084 137.477 45.7903V44.7886H144.637C154.023 44.7886 159.476 50.7801 159.476 61.2419C159.476 71.7038 154.079 77.584 144.637 77.584H141.91C143.158 78.6909 144.161 80.0465 144.854 81.5639C145.548 83.0813 145.916 84.7269 145.935 86.395C145.921 88.8005 145.155 91.1414 143.747 93.0913C152.669 93.0913 158.363 91.4219 164.522 87.3039C167.114 85.5875 169.423 83.4786 171.367 81.0527C175.763 75.3068 178.107 68.2537 178.026 61.0193C178.135 55.3184 176.66 49.699 173.765 44.7866C170.87 39.8741 166.668 35.8615 161.628 33.1952" fill="#E8443C"/>
<path d="M69.9012 36.9978C69.6079 34.695 69.843 32.3557 70.5887 30.1573C71.3343 27.9589 72.5709 25.9592 74.2047 24.31C76.1009 22.3955 78.4061 20.9354 80.9472 20.0391C83.4884 19.1427 86.1996 18.8336 88.8773 19.1347C99.5247 19.7098 104.626 26.9997 104.626 34.8647C104.337 39.3817 102.731 43.7152 100.007 47.3299L99.5432 46.8476C99.0238 46.3282 98.4117 45.7903 97.6883 45.2152C95.8016 43.6328 94.1081 41.8335 92.6428 39.8545C95.5551 34.5493 93.8856 27.0368 87.7272 27.0368C86.7927 27.0923 85.8796 27.34 85.0452 27.7643C84.2107 28.1886 83.4727 28.7805 82.8773 29.503C82.2819 30.2255 81.842 31.063 81.5849 31.9632C81.3278 32.8634 81.2592 33.8069 81.3833 34.7348C80.412 37.1907 80.0247 39.8387 80.2518 42.4699C78.5516 41.5758 77.1711 40.1757 76.3008 38.4632L74.0377 33.0468L72.1828 38.6116C71.7615 39.9926 71.6538 41.4501 71.8674 42.878V42.878C70.7261 41.1058 70.0381 39.08 69.8641 36.9793M62.908 56.4933C65.9502 53.4512 72.1828 51.5592 72.5723 49.9083C72.9619 48.2573 69.7713 45.512 68.5656 44.9927C70.794 44.8154 73.0362 45.0352 75.1878 45.6419C74.6009 44.7033 74.2197 43.6509 74.0694 42.5542C73.9191 41.4574 74.0031 40.3413 74.316 39.2794C76.7274 45.0668 85.3343 45.9943 87.4675 50.7801C87.1344 49.5707 86.5622 48.4404 85.7848 47.4559C85.0075 46.4714 84.0406 45.6528 82.9415 45.0483C81.7172 41.8949 82.6261 36.1075 84.1286 34.4937C83.5907 42.8409 95.4994 47.6081 97.9665 53.6552C96.5011 48.4614 90.9734 45.1781 88.3393 42.0804C87.9863 40.9653 87.8699 39.7887 87.9977 38.6261C88.1254 37.4634 88.4945 36.3402 89.0813 35.3284C88.8031 40.8932 94.8317 45.2709 98.0407 48.313C101.843 52.0229 102.919 55.2319 102.4 57.8845C102.953 57.9841 103.45 58.2862 103.793 58.732C104.136 59.1778 104.301 59.7354 104.255 60.2959C104.86 60.0853 105.417 59.7528 105.889 59.3189C106.361 58.885 106.739 58.359 107 57.7732C107.258 59.6766 106.965 61.6141 106.157 63.3564C105.348 65.0987 104.057 66.5728 102.437 67.6044C102.635 67.0208 102.692 66.3984 102.601 65.7887C102.511 65.179 102.277 64.5996 101.918 64.0986C100.693 62.6146 97.206 62.5961 96.0374 62.6888C96.0374 62.6888 97.4657 60.5371 96.9092 59.4612C96.1858 58.1071 89.3781 58.7007 86.3175 59.8137C87.7892 59.7458 89.262 59.9213 90.6766 60.333C90.1943 61.0379 88.9515 64.0429 89.8418 64.9519C90.7322 65.8608 91.6968 64.3397 91.6968 64.3397C91.6968 64.3397 90.6395 67.623 91.4 68.3835C92.1605 69.144 93.7929 68.6061 93.7929 68.6061C92.7727 71.1845 88.8216 72.9467 86.0392 72.9467C87.3597 72.3031 88.3871 71.1829 88.9144 69.8118C87.8506 70.2169 86.7104 70.3816 85.5755 70.2941C86.4045 69.7183 87.0477 68.9133 87.4266 67.9778C87.8054 67.0422 87.9035 66.0165 87.7087 65.0261C86.8739 61.3162 81.6059 60.7597 78.9533 62.5961C79.9471 60.0535 81.8985 58.0022 84.3883 56.8828C83.0753 56.438 81.7294 56.0969 80.3631 55.8626C82.7866 54.3648 85.5832 53.5805 88.4321 53.5996C85.1303 52.7463 79.1574 53.8036 76.3379 57.0683C77.6998 57.168 79.0483 57.4042 80.3631 57.7732C76.4467 58.8465 72.8541 60.8658 69.9012 63.6534C70.2907 61.4646 70.9029 59.6096 70.402 58.2926C69.66 56.4377 67.397 55.6586 62.9822 56.5861M97.2802 56.9941C96.9477 56.0746 96.4211 55.2374 95.7361 54.5396C95.0511 53.8418 94.2239 53.2998 93.3106 52.9504C93.9227 55.065 94.7204 56.9941 97.2802 56.9941ZM143.784 86.3765C143.784 80.2551 137.848 75.5065 131.077 76.1372C132.313 76.3977 133.43 77.0553 134.257 78.0098C135.085 78.9644 135.577 80.1633 135.659 81.4238C135.659 86.2095 129.686 87.6935 126.384 86.9886C129.89 84.5586 129.426 77.5655 125.216 75.0799C126.644 78.9938 122.359 82.8892 118.204 79.4761C115.885 77.6211 110.543 73.1136 108.15 71.1845C105.757 69.2553 102.956 70.3868 101.862 69.5521C100.767 68.7174 101.417 65.8422 99.6916 64.9148C98.2633 64.08 96.835 64.5438 95.1655 63.9873C94.433 63.8285 93.7823 63.4111 93.3326 62.8115C92.8829 62.2119 92.6643 61.4702 92.717 60.7226C92.3545 61.4297 92.2053 62.227 92.2877 63.0174C92.37 63.8078 92.6803 64.5572 93.1807 65.1745C94.3308 66.4915 96.2229 67.3076 97.0205 68.7545C98.0407 70.6094 96.3156 73.2435 100.842 76.805C103.012 78.493 106.407 81.2754 108.558 83.2045C112.268 86.4507 110.283 90.4759 110.766 94.0003C111.004 95.6241 111.704 97.1451 112.783 98.3819C113.861 99.6186 115.273 100.519 116.85 100.975C115.739 99.7917 115.12 98.2296 115.12 96.6065C115.12 94.9834 115.739 93.4212 116.85 92.2381C117.006 94.6026 117.885 96.862 119.368 98.7102C120.851 100.558 122.867 101.906 125.141 102.57C131.151 104.165 137.551 100.715 138.887 98.3594C137.425 98.7491 135.892 98.784 134.414 98.4614C132.936 98.1387 131.557 97.4678 130.391 96.5045C137.44 97.5061 143.691 92.5905 143.691 86.3208M107.111 84.7256C105.256 83.0747 102.418 80.7374 100.304 79.0494C97.8923 83.1674 92.7541 88.5468 87.5603 88.5468C77.9888 88.5468 73.1844 75.0057 83.8504 63.9131C83.3817 63.7679 82.8942 63.6929 82.4035 63.6905C81.5539 63.6692 80.7162 63.8948 79.9921 64.3397L75.9298 67.3076L76.8943 61.9468C76.983 61.63 77.0946 61.32 77.2282 61.0194C75.1258 62.0259 73.1922 63.3525 71.4964 64.9519L67.3414 69.4965L67.7866 63.0969L68.0648 61.6686C68.3273 60.7719 68.4401 59.8381 68.3987 58.9047C68.3295 58.7643 68.2196 58.6479 68.0833 58.5708C66.1171 60.0919 60.6636 64.8962 60.0514 71.9636C60.5298 71.2196 61.1624 70.587 61.9064 70.1086C62.5185 69.886 63.0379 70.1086 62.4629 71.9636C62.2403 72.6499 57.0093 86.8031 67.3043 96.6158C67.3043 96.6158 66.1728 93.7406 66.8591 92.9059C67.193 92.4792 67.6196 92.4421 68.2132 93.2027C68.8068 93.9632 69.1221 94.3527 69.623 94.9092C70.5286 95.8996 71.5219 96.806 72.5909 97.6174C76.1085 100.107 80.3014 101.466 84.6109 101.513C97.3544 101.513 104.088 92.7204 107.835 85.3562C107.668 85.1708 107.482 84.9667 107.278 84.7812M129.13 54.0633C119.651 54.5271 111.471 62.5961 107.297 68.2908C108.116 68.5487 108.882 68.9507 109.56 69.4779L113.121 72.3902C115.067 68.048 117.615 64.0015 120.69 60.3701C122.261 58.5435 124.435 57.3407 126.817 56.9799C129.2 56.6191 131.632 57.1244 133.674 58.4039C135.77 56.549 142.949 54.694 146.659 55.8255C143.395 52.2908 138.886 50.1625 134.082 49.8897C129.612 49.8897 127.089 52.0785 126.44 51.0954C125.791 50.1123 129.463 48.0348 129.463 48.0348C124.195 48.2574 120.356 54.4714 118.76 53.5996C117.814 53.1359 120.189 50.1494 120.189 50.1494C115.612 53.0085 112.18 57.3791 110.487 62.5033C114.921 57.0683 123.472 53.2286 129.13 53.9891M130.725 78.1034C131.488 78.2855 132.174 78.705 132.684 79.3016C133.194 79.8983 133.502 80.6413 133.563 81.4238C133.564 81.9432 133.424 82.4533 133.16 82.9004C132.896 83.3476 132.516 83.7153 132.06 83.965C131.58 84.2573 131.062 84.482 130.521 84.6328C130.824 83.5911 130.962 82.5082 130.929 81.4238C130.929 79.4019 130.725 78.2889 130.725 78.2889" fill="#E8443C"/>
</svg>
