<svg width="186" height="84" viewBox="0 0 186 84" fill="none" xmlns="http://www.w3.org/2000/svg">
<path d="M185.742 67.5991C185.732 68.8623 185.347 70.0941 184.637 71.1392C183.927 72.1842 182.924 72.9958 181.754 73.4717C180.583 73.9475 179.298 74.0663 178.061 73.8131C176.823 73.56 175.688 72.9461 174.798 72.0489C173.909 71.1518 173.305 70.0114 173.063 68.7716C172.82 67.5317 172.95 66.2479 173.436 65.0817C173.922 63.9156 174.742 62.9194 175.793 62.2186C176.845 61.5179 178.08 61.1439 179.343 61.1439C180.199 61.1036 181.054 61.2434 181.852 61.5543C182.65 61.8652 183.375 62.3403 183.978 62.9488C184.581 63.5572 185.05 64.2855 185.354 65.0866C185.658 65.8876 185.79 66.7436 185.742 67.5991M179.343 72.7372C180.369 72.7929 181.389 72.5395 182.269 72.0098C183.15 71.4801 183.852 70.6984 184.284 69.7658C184.716 68.8332 184.858 67.7925 184.692 66.7782C184.526 65.7638 184.06 64.8225 183.354 64.0758C182.648 63.3291 181.734 62.8114 180.73 62.5895C179.727 62.3677 178.68 62.4519 177.725 62.8312C176.769 63.2106 175.95 63.8677 175.372 64.7176C174.794 65.5676 174.484 66.5713 174.483 67.5991C174.425 68.2647 174.509 68.9352 174.729 69.5661C174.949 70.1971 175.3 70.7743 175.759 71.2598C176.218 71.7453 176.775 72.1279 177.393 72.3826C178.01 72.6372 178.675 72.7581 179.343 72.7372M180.901 68.508C183.294 67.97 182.756 64.3158 179.899 64.3158H176.765V70.8823H178.49V68.8419H179.102L180.66 70.8823H182.515V70.5113L180.901 68.508ZM179.899 65.874C180.008 65.8568 180.119 65.8635 180.225 65.8934C180.33 65.9232 180.428 65.9757 180.512 66.0471C180.596 66.1185 180.663 66.2071 180.709 66.3069C180.755 66.4067 180.778 66.5153 180.778 66.6252C180.778 66.7351 180.755 66.8437 180.709 66.9435C180.663 67.0433 180.596 67.1319 180.512 67.2033C180.428 67.2747 180.33 67.3272 180.225 67.3571C180.119 67.387 180.008 67.3936 179.899 67.3765H178.49V65.874H179.899Z" fill="#E8443C"/>
<path d="M36.9017 58.5655H29.7416V25.77H36.9017C46.3063 25.77 51.7413 31.7615 51.7413 42.2234C51.7413 52.6853 46.3619 58.5655 36.9017 58.5655ZM137.514 29.2017V27.3467C136.322 27.7004 135.162 28.1534 134.045 28.7008C135.213 28.7144 136.375 28.8512 137.514 29.1089M59.1796 57.9162L57.1948 60.6986L57.8997 52.8337C58.5646 47.581 61.1557 42.7622 65.1711 39.3111C64.6146 39.3111 64.021 39.4595 63.3161 39.5894L56.2673 41.0548L61.4612 35.9537C63.3619 34.2795 65.4841 32.8751 67.768 31.7801L68.5285 31.372C66.0366 23.9448 60.7461 17.7826 53.7817 14.1952C48.932 11.6995 43.5616 10.3839 38.1074 10.3554V10.3554H25.2898C15.1432 10.3554 10.3389 10.2256 6.74032 9.40942C4.71335 8.82625 2.78689 7.93808 1.02709 6.7754L0.248016 6.33021V7.25768C0.248016 7.55447 0.971445 14.4178 9.18885 20.4278C10.7841 21.5593 11.8971 22.6908 11.8971 26.7346V63.5367C11.8971 67.4692 11.118 68.5636 9.2816 69.6766C7.4452 70.7895 3.23448 73.2566 3.23448 73.2566L1.80617 74.0913H35.1952C44.4699 74.0913 50.3686 72.5146 56.694 68.2854C57.5615 67.7126 58.3974 67.0934 59.1982 66.4304C58.7814 63.6325 58.7814 60.7883 59.1982 57.9904M123.045 58.8808C123.242 58.5829 123.365 58.2424 123.404 57.8875C123.442 57.5326 123.396 57.1737 123.268 56.8404L121.19 51.1086L126.384 54.1878C126.876 54.4858 127.336 54.8339 127.757 55.2266L130.873 55.004C133.139 54.7908 135.424 55.1018 137.551 55.9129V39.7749C136.666 40.0426 135.832 40.4564 135.084 40.9991L133.767 42.1863L132.339 41.1104C131.247 40.3672 129.949 39.9845 128.629 40.016C127.449 40.015 126.282 40.2603 125.202 40.7363C124.123 41.2122 123.154 41.9082 122.359 42.7799C121.432 43.8557 120.504 44.9687 119.818 46.0631V58.8437C121.079 59.8083 122.396 59.7897 123.082 58.8437M161.628 14.1952C156.778 11.6995 151.408 10.3839 145.954 10.3554V10.3554H133.081C122.934 10.3554 118.13 10.2256 114.531 9.40942C112.504 8.82625 110.578 7.93808 108.818 6.7754L108.039 6.25601V7.18348C108.039 7.48028 108.762 14.3436 116.98 20.3536C118.575 21.4851 119.688 22.6166 119.688 26.6604V29.313C121.542 28.181 123.499 27.2247 125.531 26.4564C124.661 27.2407 123.871 28.1108 123.175 29.0533C125.036 27.8672 127.13 27.0954 129.315 26.7903C132.014 26.3084 134.778 26.3084 137.477 26.7903V25.7886H144.637C154.023 25.7886 159.476 31.7801 159.476 42.2419C159.476 52.7038 154.079 58.584 144.637 58.584H141.91C143.158 59.6909 144.161 61.0465 144.854 62.5639C145.548 64.0813 145.916 65.7269 145.935 67.395C145.921 69.8005 145.155 72.1414 143.747 74.0913C152.669 74.0913 158.363 72.4219 164.522 68.3039C167.114 66.5875 169.423 64.4786 171.367 62.0527C175.763 56.3068 178.107 49.2537 178.026 42.0193C178.135 36.3184 176.66 30.699 173.765 25.7866C170.87 20.8741 166.668 16.8615 161.628 14.1952" fill="#E8443C"/>
<path d="M69.9012 17.9978C69.6079 15.695 69.843 13.3557 70.5887 11.1573C71.3343 8.95889 72.5709 6.95922 74.2047 5.31001C76.1009 3.39554 78.4061 1.93537 80.9472 1.03906C83.4884 0.142741 86.1996 -0.166437 88.8773 0.134718C99.5247 0.709751 104.626 7.99969 104.626 15.8647C104.337 20.3817 102.731 24.7152 100.007 28.3299L99.5432 27.8476C99.0238 27.3282 98.4117 26.7903 97.6883 26.2152C95.8016 24.6328 94.1081 22.8335 92.6428 20.8545C95.5551 15.5493 93.8856 8.03678 87.7272 8.03678C86.7927 8.0923 85.8796 8.33996 85.0452 8.7643C84.2107 9.18865 83.4727 9.78055 82.8773 10.503C82.2819 11.2255 81.842 12.063 81.5849 12.9632C81.3278 13.8634 81.2592 14.8069 81.3833 15.7348C80.412 18.1907 80.0247 20.8387 80.2518 23.4699C78.5516 22.5758 77.1711 21.1757 76.3008 19.4632L74.0377 14.0468L72.1828 19.6116C71.7615 20.9926 71.6538 22.4501 71.8674 23.878V23.878C70.7261 22.1058 70.0381 20.08 69.8641 17.9793M62.908 37.4933C65.9502 34.4512 72.1828 32.5592 72.5723 30.9083C72.9619 29.2573 69.7713 26.512 68.5656 25.9927C70.794 25.8154 73.0362 26.0352 75.1878 26.6419C74.6009 25.7033 74.2197 24.6509 74.0694 23.5542C73.9191 22.4574 74.0031 21.3413 74.316 20.2794C76.7274 26.0668 85.3343 26.9943 87.4675 31.7801C87.1344 30.5707 86.5622 29.4404 85.7848 28.4559C85.0075 27.4714 84.0406 26.6528 82.9415 26.0483C81.7172 22.8949 82.6261 17.1075 84.1286 15.4937C83.5907 23.8409 95.4994 28.6081 97.9665 34.6552C96.5011 29.4614 90.9734 26.1781 88.3393 23.0804C87.9863 21.9653 87.8699 20.7887 87.9977 19.6261C88.1254 18.4634 88.4945 17.3402 89.0813 16.3284C88.8031 21.8932 94.8317 26.2709 98.0407 29.313C101.843 33.0229 102.919 36.2319 102.4 38.8845C102.953 38.9841 103.45 39.2862 103.793 39.732C104.136 40.1778 104.301 40.7354 104.255 41.2959C104.86 41.0853 105.417 40.7528 105.889 40.3189C106.361 39.885 106.739 39.359 107 38.7732C107.258 40.6766 106.965 42.6141 106.157 44.3564C105.348 46.0987 104.057 47.5728 102.437 48.6044C102.635 48.0208 102.692 47.3984 102.601 46.7887C102.511 46.179 102.277 45.5996 101.918 45.0986C100.693 43.6146 97.206 43.5961 96.0374 43.6888C96.0374 43.6888 97.4657 41.5371 96.9092 40.4612C96.1858 39.1071 89.3781 39.7007 86.3175 40.8137C87.7892 40.7458 89.262 40.9213 90.6766 41.333C90.1943 42.0379 88.9515 45.0429 89.8418 45.9519C90.7322 46.8608 91.6968 45.3397 91.6968 45.3397C91.6968 45.3397 90.6395 48.623 91.4 49.3835C92.1605 50.144 93.7929 49.6061 93.7929 49.6061C92.7727 52.1845 88.8216 53.9467 86.0392 53.9467C87.3597 53.3031 88.3871 52.1829 88.9144 50.8118C87.8506 51.2169 86.7104 51.3816 85.5755 51.2941C86.4045 50.7183 87.0477 49.9133 87.4266 48.9778C87.8054 48.0422 87.9035 47.0165 87.7087 46.0261C86.8739 42.3162 81.6059 41.7597 78.9533 43.5961C79.9471 41.0535 81.8985 39.0022 84.3883 37.8828C83.0753 37.438 81.7294 37.0969 80.3631 36.8626C82.7866 35.3648 85.5832 34.5805 88.4321 34.5996C85.1303 33.7463 79.1574 34.8036 76.3379 38.0683C77.6998 38.168 79.0483 38.4042 80.3631 38.7732C76.4467 39.8465 72.8541 41.8658 69.9012 44.6534C70.2907 42.4646 70.9029 40.6096 70.402 39.2926C69.66 37.4377 67.397 36.6586 62.9822 37.5861M97.2802 37.9941C96.9477 37.0746 96.4211 36.2374 95.7361 35.5396C95.0511 34.8418 94.2239 34.2998 93.3106 33.9504C93.9227 36.065 94.7204 37.9941 97.2802 37.9941ZM143.784 67.3765C143.784 61.2551 137.848 56.5065 131.077 57.1372C132.313 57.3977 133.43 58.0553 134.257 59.0098C135.085 59.9644 135.577 61.1633 135.659 62.4238C135.659 67.2095 129.686 68.6935 126.384 67.9886C129.89 65.5586 129.426 58.5655 125.216 56.0799C126.644 59.9938 122.359 63.8892 118.204 60.4761C115.885 58.6211 110.543 54.1136 108.15 52.1845C105.757 50.2553 102.956 51.3868 101.862 50.5521C100.767 49.7174 101.417 46.8422 99.6916 45.9148C98.2633 45.08 96.835 45.5438 95.1655 44.9873C94.433 44.8285 93.7823 44.4111 93.3326 43.8115C92.8829 43.2119 92.6643 42.4702 92.717 41.7226C92.3545 42.4297 92.2053 43.227 92.2877 44.0174C92.37 44.8078 92.6803 45.5572 93.1807 46.1745C94.3308 47.4915 96.2229 48.3076 97.0205 49.7545C98.0407 51.6094 96.3156 54.2435 100.842 57.805C103.012 59.493 106.407 62.2754 108.558 64.2045C112.268 67.4507 110.283 71.4759 110.766 75.0003C111.004 76.6241 111.704 78.1451 112.783 79.3819C113.861 80.6186 115.273 81.5188 116.85 81.9749C115.739 80.7917 115.12 79.2296 115.12 77.6065C115.12 75.9834 115.739 74.4212 116.85 73.2381C117.006 75.6026 117.885 77.862 119.368 79.7102C120.851 81.5583 122.867 82.9058 125.141 83.5701C131.151 85.1654 137.551 81.7152 138.887 79.3594C137.425 79.7491 135.892 79.784 134.414 79.4614C132.936 79.1387 131.557 78.4678 130.391 77.5045C137.44 78.5061 143.691 73.5905 143.691 67.3208M107.111 65.7256C105.256 64.0747 102.418 61.7374 100.304 60.0494C97.8923 64.1674 92.7541 69.5468 87.5603 69.5468C77.9888 69.5468 73.1844 56.0057 83.8504 44.9131C83.3817 44.7679 82.8942 44.6929 82.4035 44.6905C81.5539 44.6692 80.7162 44.8948 79.9921 45.3397L75.9298 48.3076L76.8943 42.9468C76.983 42.63 77.0946 42.32 77.2282 42.0194C75.1258 43.0259 73.1922 44.3525 71.4964 45.9519L67.3414 50.4965L67.7866 44.0969L68.0648 42.6686C68.3273 41.7719 68.4401 40.8381 68.3987 39.9047C68.3295 39.7643 68.2196 39.6479 68.0833 39.5708C66.1171 41.0919 60.6636 45.8962 60.0514 52.9636C60.5298 52.2196 61.1624 51.587 61.9064 51.1086C62.5185 50.886 63.0379 51.1086 62.4629 52.9636C62.2403 53.6499 57.0093 67.8031 67.3043 77.6158C67.3043 77.6158 66.1728 74.7406 66.8591 73.9059C67.193 73.4792 67.6196 73.4421 68.2132 74.2027C68.8068 74.9632 69.1221 75.3527 69.623 75.9092C70.5286 76.8996 71.5219 77.806 72.5909 78.6174C76.1085 81.1074 80.3014 82.4662 84.6109 82.5128C97.3544 82.5128 104.088 73.7204 107.835 66.3562C107.668 66.1708 107.482 65.9667 107.278 65.7812M129.13 35.0633C119.651 35.5271 111.471 43.5961 107.297 49.2908C108.116 49.5487 108.882 49.9507 109.56 50.4779L113.121 53.3902C115.067 49.048 117.615 45.0015 120.69 41.3701C122.261 39.5435 124.435 38.3407 126.817 37.9799C129.2 37.6191 131.632 38.1244 133.674 39.4039C135.77 37.549 142.949 35.694 146.659 36.8255C143.395 33.2908 138.886 31.1625 134.082 30.8897C129.612 30.8897 127.089 33.0785 126.44 32.0954C125.791 31.1123 129.463 29.0348 129.463 29.0348C124.195 29.2574 120.356 35.4714 118.76 34.5996C117.814 34.1359 120.189 31.1494 120.189 31.1494C115.612 34.0085 112.18 38.3791 110.487 43.5033C114.921 38.0683 123.472 34.2286 129.13 34.9891M130.725 59.1034C131.488 59.2855 132.174 59.705 132.684 60.3016C133.194 60.8983 133.502 61.6413 133.563 62.4238C133.564 62.9432 133.424 63.4533 133.16 63.9004C132.896 64.3476 132.516 64.7153 132.06 64.965C131.58 65.2573 131.062 65.482 130.521 65.6328C130.824 64.5911 130.962 63.5082 130.929 62.4238C130.929 60.4019 130.725 59.2889 130.725 59.2889" fill="#E8443C"/>
</svg>
