<svg width="194" height="122" viewBox="0 0 194 122" fill="none" xmlns="http://www.w3.org/2000/svg">
<g filter="url(#filter0_d_20_181)">
<path d="M189.742 86.5991C189.732 87.8623 189.347 89.0941 188.637 90.1392C187.927 91.1842 186.924 91.9958 185.754 92.4717C184.583 92.9475 183.298 93.0663 182.061 92.8131C180.823 92.56 179.688 91.9461 178.798 91.0489C177.909 90.1518 177.305 89.0114 177.063 87.7716C176.82 86.5317 176.95 85.2479 177.436 84.0817C177.922 82.9156 178.742 81.9194 179.793 81.2186C180.845 80.5179 182.08 80.1439 183.343 80.1439C184.199 80.1036 185.054 80.2434 185.852 80.5543C186.65 80.8652 187.375 81.3403 187.978 81.9488C188.581 82.5572 189.05 83.2855 189.354 84.0866C189.658 84.8876 189.79 85.7436 189.742 86.5991ZM183.343 91.7372C184.369 91.7929 185.389 91.5395 186.269 91.0098C187.15 90.4801 187.852 89.6984 188.284 88.7658C188.716 87.8332 188.858 86.7925 188.692 85.7782C188.526 84.7638 188.06 83.8225 187.354 83.0758C186.648 82.3291 185.734 81.8114 184.73 81.5895C183.727 81.3677 182.68 81.4519 181.725 81.8312C180.769 82.2106 179.95 82.8677 179.372 83.7176C178.794 84.5676 178.484 85.5713 178.483 86.5991C178.425 87.2647 178.509 87.9352 178.729 88.5661C178.949 89.1971 179.3 89.7743 179.759 90.2598C180.218 90.7453 180.775 91.1279 181.393 91.3826C182.01 91.6372 182.675 91.7581 183.343 91.7372ZM184.901 87.508C187.294 86.97 186.756 83.3158 183.899 83.3158H180.765V89.8823H182.49V87.8419H183.102L184.66 89.8823H186.515V89.5113L184.901 87.508ZM183.899 84.874C184.008 84.8568 184.119 84.8635 184.225 84.8934C184.33 84.9232 184.428 84.9757 184.512 85.0471C184.596 85.1185 184.663 85.2071 184.709 85.3069C184.755 85.4067 184.778 85.5153 184.778 85.6252C184.778 85.7351 184.755 85.8437 184.709 85.9435C184.663 86.0433 184.596 86.1319 184.512 86.2033C184.428 86.2747 184.33 86.3272 184.225 86.3571C184.119 86.387 184.008 86.3936 183.899 86.3765H182.49V84.874H183.899Z" fill="white"/>
<path d="M40.9017 77.5654H33.7416V44.77H40.9017C50.3063 44.77 55.7413 50.7615 55.7413 61.2234C55.7413 71.6853 50.3619 77.5654 40.9017 77.5654ZM141.514 48.2017V46.3467C140.322 46.7004 139.162 47.1534 138.045 47.7008C139.213 47.7144 140.375 47.8512 141.514 48.1089M63.1796 76.9162L61.1948 79.6986L61.8997 71.8337C62.5646 66.581 65.1557 61.7622 69.1711 58.3111C68.6146 58.3111 68.021 58.4595 67.3161 58.5894L60.2673 60.0548L65.4612 54.9537C67.3619 53.2795 69.4841 51.8751 71.768 50.7801L72.5285 50.372C70.0366 42.9448 64.7461 36.7826 57.7817 33.1952C52.932 30.6995 47.5616 29.3839 42.1074 29.3554H29.2898C19.1432 29.3554 14.3389 29.2256 10.7403 28.4094C8.71335 27.8262 6.78689 26.9381 5.02709 25.7754L4.24802 25.3302V26.2577C4.24802 26.5545 4.97145 33.4178 13.1889 39.4278C14.7841 40.5593 15.8971 41.6908 15.8971 45.7346V82.5367C15.8971 86.4692 15.118 87.5636 13.2816 88.6766C11.4452 89.7895 7.23448 92.2566 7.23448 92.2566L5.80617 93.0913H39.1952C48.4699 93.0913 54.3686 91.5146 60.694 87.2854C61.5615 86.7126 62.3974 86.0934 63.1982 85.4304C62.7814 82.6325 62.7814 79.7883 63.1982 76.9904M127.045 77.8808C127.242 77.5829 127.365 77.2424 127.404 76.8875C127.442 76.5326 127.396 76.1737 127.268 75.8404L125.19 70.1086L130.384 73.1878C130.876 73.4858 131.336 73.8339 131.757 74.2266L134.873 74.004C137.139 73.7908 139.424 74.1018 141.551 74.9129V58.7749C140.666 59.0426 139.832 59.4564 139.084 59.9991L137.767 61.1863L136.339 60.1104C135.247 59.3672 133.949 58.9845 132.629 59.016C131.449 59.015 130.282 59.2603 129.202 59.7363C128.123 60.2122 127.154 60.9082 126.359 61.7799C125.432 62.8557 124.504 63.9687 123.818 65.0631V77.8437C125.079 78.8083 126.396 78.7897 127.082 77.8437M165.628 33.1952C160.778 30.6995 155.408 29.3839 149.954 29.3554H137.081C126.934 29.3554 122.13 29.2256 118.531 28.4094C116.504 27.8262 114.578 26.9381 112.818 25.7754L112.039 25.256V26.1835C112.039 26.4803 112.762 33.3436 120.98 39.3536C122.575 40.4851 123.688 41.6166 123.688 45.6604V48.313C125.542 47.181 127.499 46.2247 129.531 45.4564C128.661 46.2407 127.871 47.1108 127.175 48.0533C129.036 46.8672 131.13 46.0954 133.315 45.7903C136.014 45.3084 138.778 45.3084 141.477 45.7903V44.7886H148.637C158.023 44.7886 163.476 50.7801 163.476 61.2419C163.476 71.7038 158.079 77.584 148.637 77.584H145.91C147.158 78.6909 148.161 80.0465 148.854 81.5639C149.548 83.0813 149.916 84.7269 149.935 86.395C149.921 88.8005 149.155 91.1414 147.747 93.0913C156.669 93.0913 162.363 91.4219 168.522 87.3039C171.114 85.5875 173.423 83.4786 175.367 81.0527C179.763 75.3068 182.107 68.2537 182.026 61.0193C182.135 55.3184 180.66 49.699 177.765 44.7866C174.87 39.8741 170.668 35.8615 165.628 33.1952Z" fill="white"/>
<path d="M73.9012 36.9978C73.6079 34.695 73.843 32.3557 74.5887 30.1573C75.3343 27.9589 76.5709 25.9592 78.2047 24.31C80.1009 22.3955 82.4061 20.9354 84.9472 20.0391C87.4884 19.1427 90.1996 18.8336 92.8773 19.1347C103.525 19.7098 108.626 26.9997 108.626 34.8647C108.337 39.3817 106.731 43.7152 104.007 47.3299L103.543 46.8476C103.024 46.3282 102.412 45.7903 101.688 45.2152C99.8016 43.6328 98.1081 41.8335 96.6428 39.8545C99.5551 34.5493 97.8856 27.0368 91.7272 27.0368C90.7927 27.0923 89.8796 27.34 89.0452 27.7643C88.2107 28.1886 87.4727 28.7805 86.8773 29.503C86.2819 30.2255 85.842 31.063 85.5849 31.9632C85.3278 32.8634 85.2592 33.8069 85.3833 34.7348C84.412 37.1907 84.0247 39.8387 84.2518 42.4699C82.5516 41.5758 81.1711 40.1757 80.3008 38.4632L78.0377 33.0468L76.1828 38.6116C75.7615 39.9926 75.6538 41.4501 75.8674 42.878C74.7261 41.1058 74.0381 39.08 73.8641 36.9793M66.908 56.4933C69.9502 53.4512 76.1828 51.5592 76.5723 49.9083C76.9619 48.2573 73.7713 45.512 72.5656 44.9927C74.794 44.8154 77.0362 45.0352 79.1878 45.6419C78.6009 44.7033 78.2197 43.6509 78.0694 42.5542C77.9191 41.4574 78.0031 40.3413 78.316 39.2794C80.7274 45.0668 89.3343 45.9943 91.4675 50.7801C91.1344 49.5707 90.5622 48.4404 89.7848 47.4559C89.0075 46.4714 88.0406 45.6528 86.9415 45.0483C85.7172 41.8949 86.6261 36.1075 88.1286 34.4937C87.5907 42.8409 99.4994 47.6081 101.967 53.6552C100.501 48.4614 94.9734 45.1781 92.3393 42.0804C91.9863 40.9653 91.8699 39.7887 91.9977 38.6261C92.1254 37.4634 92.4945 36.3402 93.0813 35.3284C92.8031 40.8932 98.8317 45.2709 102.041 48.313C105.843 52.0229 106.919 55.2319 106.4 57.8845C106.953 57.9841 107.45 58.2862 107.793 58.732C108.136 59.1778 108.301 59.7354 108.255 60.2959C108.86 60.0853 109.417 59.7528 109.889 59.3189C110.361 58.885 110.739 58.359 111 57.7732C111.258 59.6766 110.965 61.6141 110.157 63.3564C109.348 65.0987 108.057 66.5728 106.437 67.6044C106.635 67.0209 106.692 66.3984 106.601 65.7887C106.511 65.179 106.277 64.5996 105.918 64.0986C104.693 62.6146 101.206 62.5961 100.037 62.6888C100.037 62.6888 101.466 60.5371 100.909 59.4612C100.186 58.1071 93.3781 58.7007 90.3175 59.8137C91.7892 59.7458 93.262 59.9213 94.6766 60.333C94.1943 61.0379 92.9515 64.0429 93.8418 64.9519C94.7322 65.8608 95.6968 64.3397 95.6968 64.3397C95.6968 64.3397 94.6395 67.623 95.4 68.3835C96.1605 69.144 97.7929 68.6061 97.7929 68.6061C96.7727 71.1845 92.8216 72.9467 90.0392 72.9467C91.3597 72.3031 92.3871 71.1829 92.9144 69.8118C91.8506 70.2169 90.7104 70.3816 89.5755 70.2941C90.4045 69.7183 91.0477 68.9133 91.4266 67.9778C91.8054 67.0422 91.9035 66.0165 91.7087 65.0261C90.8739 61.3162 85.6059 60.7597 82.9533 62.5961C83.9471 60.0535 85.8985 58.0022 88.3883 56.8828C87.0753 56.438 85.7294 56.0969 84.3631 55.8626C86.7866 54.3648 89.5832 53.5805 92.4321 53.5996C89.1303 52.7463 83.1574 53.8036 80.3379 57.0683C81.6998 57.168 83.0483 57.4042 84.3631 57.7732C80.4467 58.8465 76.8541 60.8658 73.9012 63.6534C74.2907 61.4646 74.9029 59.6096 74.402 58.2926C73.66 56.4377 71.397 55.6586 66.9822 56.5861M101.28 56.9941C100.948 56.0746 100.421 55.2374 99.7361 54.5396C99.0511 53.8418 98.2239 53.2998 97.3106 52.9504C97.9227 55.065 98.7204 56.9941 101.28 56.9941ZM147.784 86.3765C147.784 80.2551 141.848 75.5065 135.077 76.1372C136.313 76.3977 137.43 77.0553 138.257 78.0098C139.085 78.9644 139.577 80.1633 139.659 81.4238C139.659 86.2095 133.686 87.6935 130.384 86.9886C133.89 84.5586 133.426 77.5655 129.216 75.0799C130.644 78.9938 126.359 82.8892 122.204 79.4761C119.885 77.6211 114.543 73.1136 112.15 71.1845C109.757 69.2553 106.956 70.3868 105.862 69.5521C104.767 68.7174 105.417 65.8422 103.692 64.9148C102.263 64.08 100.835 64.5438 99.1655 63.9873C98.433 63.8285 97.7823 63.4111 97.3326 62.8115C96.8829 62.2119 96.6643 61.4702 96.717 60.7226C96.3545 61.4297 96.2053 62.227 96.2877 63.0174C96.37 63.8078 96.6803 64.5572 97.1807 65.1745C98.3308 66.4915 100.223 67.3076 101.02 68.7545C102.041 70.6094 100.316 73.2435 104.842 76.805C107.012 78.493 110.407 81.2754 112.558 83.2045C116.268 86.4507 114.283 90.4759 114.766 94.0003C115.004 95.6241 115.704 97.1451 116.783 98.3819C117.861 99.6186 119.273 100.519 120.85 100.975C119.739 99.7917 119.12 98.2296 119.12 96.6065C119.12 94.9834 119.739 93.4212 120.85 92.2381C121.006 94.6026 121.885 96.862 123.368 98.7102C124.851 100.558 126.867 101.906 129.141 102.57C135.151 104.165 141.551 100.715 142.887 98.3594C141.425 98.7491 139.892 98.784 138.414 98.4614C136.936 98.1387 135.557 97.4678 134.391 96.5045C141.44 97.5061 147.691 92.5905 147.691 86.3208M111.111 84.7256C109.256 83.0747 106.418 80.7374 104.304 79.0494C101.892 83.1674 96.7541 88.5468 91.5603 88.5468C81.9888 88.5468 77.1844 75.0057 87.8504 63.9131C87.3817 63.7679 86.8941 63.6929 86.4035 63.6905C85.5539 63.6692 84.7162 63.8948 83.9921 64.3397L79.9298 67.3076L80.8943 61.9468C80.983 61.63 81.0946 61.32 81.2282 61.0194C79.1258 62.0259 77.1922 63.3525 75.4964 64.9519L71.3414 69.4965L71.7866 63.0969L72.0648 61.6686C72.3273 60.7719 72.4401 59.8381 72.3987 58.9047C72.3295 58.7643 72.2196 58.6479 72.0833 58.5708C70.1171 60.0919 64.6636 64.8962 64.0514 71.9636C64.5298 71.2196 65.1624 70.587 65.9064 70.1086C66.5185 69.886 67.0379 70.1086 66.4629 71.9636C66.2403 72.6499 61.0093 86.8031 71.3043 96.6158C71.3043 96.6158 70.1728 93.7406 70.8591 92.9059C71.193 92.4792 71.6196 92.4421 72.2132 93.2027C72.8068 93.9632 73.1221 94.3527 73.623 94.9092C74.5286 95.8996 75.5219 96.806 76.5909 97.6174C80.1085 100.107 84.3014 101.466 88.6109 101.513C101.354 101.513 108.088 92.7204 111.835 85.3562C111.668 85.1708 111.482 84.9667 111.278 84.7812M133.13 54.0633C123.651 54.5271 115.471 62.5961 111.297 68.2908C112.116 68.5487 112.882 68.9507 113.56 69.4779L117.121 72.3902C119.067 68.048 121.615 64.0015 124.69 60.3701C126.261 58.5435 128.435 57.3407 130.817 56.9799C133.2 56.6191 135.632 57.1244 137.674 58.4039C139.77 56.549 146.949 54.694 150.659 55.8255C147.395 52.2908 142.886 50.1625 138.082 49.8897C133.612 49.8897 131.089 52.0785 130.44 51.0954C129.791 50.1123 133.463 48.0348 133.463 48.0348C128.195 48.2574 124.356 54.4714 122.76 53.5996C121.814 53.1359 124.189 50.1494 124.189 50.1494C119.612 53.0085 116.18 57.3791 114.487 62.5033C118.921 57.0683 127.472 53.2286 133.13 53.9891M134.725 78.1034C135.488 78.2855 136.174 78.705 136.684 79.3016C137.194 79.8983 137.502 80.6413 137.563 81.4238C137.564 81.9432 137.424 82.4533 137.16 82.9004C136.896 83.3476 136.516 83.7153 136.06 83.965C135.58 84.2573 135.062 84.482 134.521 84.6328C134.824 83.5911 134.962 82.5082 134.929 81.4238C134.929 79.4019 134.725 78.2889 134.725 78.2889" fill="white"/>
</g>
<defs>
<filter id="filter0_d_20_181" x="0.248016" y="19.0229" width="193.504" height="91.9541" filterUnits="userSpaceOnUse" color-interpolation-filters="sRGB">
<feFlood flood-opacity="0" result="BackgroundImageFix"/>
<feColorMatrix in="SourceAlpha" type="matrix" values="0 0 0 0 0 0 0 0 0 0 0 0 0 0 0 0 0 0 127 0" result="hardAlpha"/>
<feOffset dy="4"/>
<feGaussianBlur stdDeviation="2"/>
<feComposite in2="hardAlpha" operator="out"/>
<feColorMatrix type="matrix" values="0 0 0 0 0 0 0 0 0 0 0 0 0 0 0 0 0 0 0.25 0"/>
<feBlend mode="normal" in2="BackgroundImageFix" result="effect1_dropShadow_20_181"/>
<feBlend mode="normal" in="SourceGraphic" in2="effect1_dropShadow_20_181" result="shape"/>
</filter>
</defs>
</svg>
