<svg width="86" height="21" viewBox="0 0 86 21" fill="none" xmlns="http://www.w3.org/2000/svg">
<path d="M25.4375 7.81676V5.81818H34.0433V7.81676H30.956V16H28.5298V7.81676H25.4375ZM37.6188 16.1293C37.1316 16.1293 36.6991 16.0481 36.3213 15.8857C35.9467 15.7199 35.6501 15.4714 35.4313 15.1399C35.2159 14.8052 35.1082 14.3859 35.1082 13.8821C35.1082 13.4579 35.1828 13.0999 35.3319 12.8082C35.4811 12.5166 35.6866 12.2796 35.9484 12.0973C36.2102 11.915 36.5118 11.7775 36.8532 11.6847C37.1946 11.5885 37.5592 11.5239 37.947 11.4908C38.3812 11.451 38.7308 11.4096 38.996 11.3665C39.2611 11.3201 39.4534 11.2554 39.5727 11.1726C39.6953 11.0864 39.7566 10.9654 39.7566 10.8097V10.7848C39.7566 10.5296 39.6688 10.3324 39.4931 10.1932C39.3175 10.054 39.0805 9.98438 38.7822 9.98438C38.4607 9.98438 38.2022 10.054 38.0066 10.1932C37.8111 10.3324 37.6868 10.5246 37.6338 10.7699L35.3916 10.6903C35.4579 10.2263 35.6285 9.81203 35.9036 9.44744C36.1821 9.07955 36.5632 8.79119 37.0471 8.58239C37.5343 8.37027 38.1193 8.2642 38.8021 8.2642C39.2893 8.2642 39.7384 8.32221 40.1494 8.43821C40.5604 8.5509 40.9183 8.71662 41.2232 8.93537C41.5282 9.1508 41.7635 9.41596 41.9292 9.73082C42.0982 10.0457 42.1828 10.4053 42.1828 10.8097V16H39.8958V14.9361H39.8362C39.7003 15.1946 39.5263 15.4134 39.3142 15.5923C39.1053 15.7713 38.8584 15.9055 38.5734 15.995C38.2917 16.0845 37.9735 16.1293 37.6188 16.1293ZM38.3696 14.5384C38.6314 14.5384 38.8667 14.4853 39.0755 14.3793C39.2876 14.2732 39.4567 14.1274 39.5826 13.9418C39.7086 13.7528 39.7715 13.5341 39.7715 13.2855V12.5597C39.7019 12.5961 39.6174 12.6293 39.518 12.6591C39.4219 12.6889 39.3158 12.7171 39.1998 12.7436C39.0838 12.7701 38.9645 12.7933 38.8419 12.8132C38.7192 12.8331 38.6016 12.8513 38.4889 12.8679C38.2602 12.9044 38.0646 12.9607 37.9022 13.0369C37.7431 13.1132 37.6205 13.2126 37.5343 13.3352C37.4515 13.4545 37.41 13.5971 37.41 13.7628C37.41 14.0147 37.4995 14.2069 37.6785 14.3395C37.8608 14.4721 38.0911 14.5384 38.3696 14.5384ZM51.5962 10.6953L49.3639 10.755C49.3407 10.5959 49.2778 10.455 49.175 10.3324C49.0723 10.2064 48.938 10.1087 48.7723 10.0391C48.6099 9.96615 48.421 9.92969 48.2055 9.92969C47.9238 9.92969 47.6835 9.98603 47.4847 10.0987C47.2891 10.2114 47.193 10.3639 47.1963 10.5561C47.193 10.7053 47.2527 10.8345 47.3753 10.9439C47.5012 11.0533 47.725 11.1411 48.0465 11.2074L49.518 11.4858C50.2804 11.6316 50.8471 11.8736 51.2183 12.2116C51.5929 12.5497 51.7818 12.9972 51.7851 13.554C51.7818 14.0777 51.626 14.5334 51.3178 14.9212C51.0128 15.3089 50.5952 15.6106 50.0649 15.826C49.5346 16.0381 48.9281 16.1442 48.2453 16.1442C47.1549 16.1442 46.2948 15.9205 45.6651 15.473C45.0386 15.0223 44.6807 14.419 44.5912 13.6634L46.9925 13.6037C47.0455 13.8821 47.1831 14.0942 47.4051 14.2401C47.6272 14.3859 47.9106 14.4588 48.2553 14.4588C48.5668 14.4588 48.8204 14.4008 49.0159 14.2848C49.2115 14.1688 49.3109 14.0147 49.3142 13.8224C49.3109 13.6501 49.2347 13.5125 49.0855 13.4098C48.9364 13.3037 48.7027 13.2209 48.3845 13.1612L47.0521 12.9077C46.2865 12.7685 45.7164 12.5116 45.3419 12.1371C44.9674 11.7592 44.7818 11.2786 44.7851 10.6953C44.7818 10.1849 44.9177 9.74905 45.1928 9.38778C45.4679 9.0232 45.859 8.74479 46.3661 8.55256C46.8732 8.36032 47.4714 8.2642 48.1608 8.2642C49.1949 8.2642 50.0102 8.4813 50.6068 8.91548C51.2034 9.34635 51.5332 9.93963 51.5962 10.6953ZM56.4345 13.9964L56.4444 11.098H56.7825L58.9302 8.36364H61.6845L58.4927 12.2812H57.8514L56.4345 13.9964ZM54.242 16V5.81818H56.6731V16H54.242ZM58.9849 16L56.9863 12.8281L58.5872 11.103L61.7939 16H58.9849ZM67.0697 16.1442C66.2709 16.1442 65.5815 15.9867 65.0015 15.6719C64.4248 15.3537 63.9806 14.9013 63.6691 14.3146C63.3608 13.7247 63.2067 13.0237 63.2067 12.2116C63.2067 11.4228 63.3625 10.7334 63.6741 10.1435C63.9856 9.55019 64.4248 9.08949 64.9915 8.76136C65.5583 8.42992 66.2261 8.2642 66.9951 8.2642C67.5386 8.2642 68.0358 8.34872 68.4866 8.51776C68.9373 8.68679 69.3268 8.93703 69.6549 9.26847C69.983 9.59991 70.2382 10.0092 70.4205 10.4964C70.6028 10.9804 70.6939 11.5355 70.6939 12.1619V12.7685H64.0569V11.3565H68.4319C68.4286 11.098 68.3672 10.8677 68.2479 10.6655C68.1286 10.4633 67.9645 10.3059 67.7557 10.1932C67.5502 10.0772 67.3133 10.0192 67.0448 10.0192C66.773 10.0192 66.5294 10.0805 66.314 10.2031C66.0985 10.3224 65.9278 10.4865 65.8019 10.6953C65.676 10.9008 65.6097 11.1345 65.603 11.3963V12.8331C65.603 13.1446 65.6643 13.4181 65.787 13.6534C65.9096 13.8854 66.0836 14.0661 66.309 14.1953C66.5344 14.3246 66.8028 14.3892 67.1144 14.3892C67.3298 14.3892 67.5254 14.3594 67.701 14.2997C67.8767 14.2401 68.0275 14.1522 68.1535 14.0362C68.2794 13.9202 68.3739 13.7777 68.4368 13.6087L70.6691 13.6733C70.5763 14.1738 70.3724 14.6096 70.0576 14.9808C69.746 15.3487 69.3367 15.6354 68.8296 15.8409C68.3225 16.0431 67.7358 16.1442 67.0697 16.1442ZM73.1956 16V8.36364H75.5074V9.76562H75.5919C75.751 9.30161 76.0195 8.93537 76.3973 8.6669C76.7751 8.39844 77.2259 8.2642 77.7496 8.2642C78.2799 8.2642 78.7339 8.40009 79.1118 8.67188C79.4896 8.94366 79.7299 9.30824 79.8327 9.76562H79.9122C80.0547 9.31155 80.3331 8.94863 80.7474 8.67685C81.1617 8.40175 81.6506 8.2642 82.2141 8.2642C82.9366 8.2642 83.5232 8.49621 83.974 8.96023C84.4248 9.42093 84.6501 10.054 84.6501 10.8594V16H82.219V11.4162C82.219 11.035 82.1213 10.745 81.9257 10.5462C81.7302 10.344 81.4766 10.2429 81.1651 10.2429C80.8303 10.2429 80.5668 10.3523 80.3746 10.571C80.1857 10.7865 80.0912 11.0765 80.0912 11.4411V16H77.7545V11.3913C77.7545 11.0367 77.6584 10.7566 77.4662 10.5511C77.274 10.3456 77.0204 10.2429 76.7055 10.2429C76.4934 10.2429 76.3062 10.2943 76.1437 10.397C75.9813 10.4964 75.8537 10.639 75.7609 10.8246C75.6714 11.0102 75.6267 11.2289 75.6267 11.4808V16H73.1956Z" fill="black"/>
<path d="M21 10.5C21 16.299 16.299 21 10.5 21C4.70099 21 0 16.299 0 10.5C0 4.70099 4.70099 0 10.5 0C16.299 0 21 4.70099 21 10.5ZM9.28547 16.0597L17.0758 8.26934C17.3403 8.00481 17.3403 7.57588 17.0758 7.31134L16.1178 6.35335C15.8533 6.08877 15.4243 6.08877 15.1598 6.35335L8.80645 12.7066L5.84024 9.7404C5.57571 9.47587 5.14678 9.47587 4.8822 9.7404L3.92421 10.6984C3.65967 10.9629 3.65967 11.3919 3.92421 11.6564L8.32743 16.0596C8.59201 16.3242 9.0209 16.3242 9.28547 16.0597V16.0597Z" fill="#5E49FF"/>
</svg>
